<?xml version="1.0" standalone="no"?>
<!DOCTYPE svg PUBLIC "-//W3C//DTD SVG 20010904//EN"
 "http://www.w3.org/TR/2001/REC-SVG-20010904/DTD/svg10.dtd">
<svg version="1.0" xmlns="http://www.w3.org/2000/svg"
 width="1000.000000pt" height="1000.000000pt" viewBox="0 0 1000.000000 1000.000000"
 preserveAspectRatio="xMidYMid meet">
<metadata>
Created by potrace 1.11, written by Peter Selinger 2001-2013
</metadata>
<g transform="translate(0.000000,1000.000000) scale(0.100000,-0.100000)"
fill="#000000" stroke="none">
<path d="M3544 8721 c-44 -15 -96 -37 -116 -49 -19 -12 -38 -18 -42 -14 -4 4
-6 2 -4 -3 2 -6 -16 -27 -38 -48 -23 -20 -59 -63 -80 -95 -22 -31 -42 -59 -45
-62 -3 -3 -16 -34 -29 -70 -16 -46 -24 -97 -27 -176 -5 -101 -3 -119 23 -202
15 -51 31 -92 36 -92 4 0 8 -5 8 -10 0 -14 37 -67 79 -112 l34 -37 -64 -106
c-35 -58 -71 -118 -79 -133 -8 -15 -18 -28 -22 -30 -5 -2 -8 -7 -8 -12 0 -5
-15 -31 -32 -59 -18 -28 -44 -69 -58 -91 -23 -38 -26 -40 -75 -40 -88 -1 -176
-59 -212 -140 -20 -44 -21 -151 -3 -187 43 -86 115 -139 198 -147 166 -16 288
126 251 291 -7 29 -16 53 -21 53 -19 0 -5 35 39 103 25 40 62 99 81 132 20 33
38 62 41 65 3 3 13 19 22 35 24 47 43 80 50 85 3 3 23 34 44 70 21 36 43 67
47 68 4 2 8 9 8 16 0 8 9 25 20 39 24 30 26 47 5 47 -8 0 -15 5 -15 10 0 6 -6
10 -12 10 -26 0 -109 84 -143 143 -37 67 -66 173 -60 222 17 155 80 253 212
327 56 32 62 33 168 33 105 -1 112 -2 169 -33 32 -18 65 -40 73 -47 8 -8 20
-18 26 -22 22 -14 82 -107 102 -158 23 -57 29 -231 9 -256 -6 -8 -14 -26 -18
-41 -6 -25 0 -30 70 -73 42 -25 77 -45 78 -43 21 29 57 156 70 248 5 36 -20
206 -33 225 -4 5 -13 28 -20 50 -18 52 -110 176 -153 206 -18 13 -38 29 -45
35 -21 20 -135 72 -195 88 -91 26 -218 20 -314 -13z"/>
<path d="M3646 8402 c-58 -21 -119 -73 -141 -119 -25 -53 -21 -213 5 -213 6 0
10 -6 10 -12 0 -7 18 -29 40 -49 42 -38 113 -69 159 -69 22 0 32 -11 62 -67
20 -38 51 -95 69 -128 18 -33 50 -93 72 -134 22 -41 53 -100 70 -130 24 -44
63 -118 74 -139 1 -2 25 11 54 28 67 40 136 54 230 47 155 -10 277 -97 342
-243 39 -89 22 -269 -32 -337 -102 -130 -196 -180 -341 -180 -118 0 -251 62
-308 145 -23 33 -51 50 -51 30 0 -7 -22 -21 -72 -44 -16 -7 -28 -16 -28 -20 0
-4 -7 -8 -15 -8 -10 0 -15 11 -16 33 -1 57 2 152 6 156 8 8 231 7 247 -1 9 -4
26 -25 38 -46 32 -57 117 -103 195 -107 74 -3 175 62 213 137 27 55 30 153 6
204 -55 116 -200 171 -314 117 -39 -18 -93 -68 -103 -95 -6 -17 -32 -18 -362
-18 l-355 0 0 -22 c-1 -101 -10 -177 -24 -203 -9 -16 -16 -34 -16 -38 0 -22
-85 -119 -133 -150 -80 -53 -139 -71 -232 -70 -65 0 -90 5 -134 27 -90 43
-120 68 -166 136 -79 119 -86 264 -19 398 58 114 142 180 273 213 l53 13 -4
83 c-2 45 -6 85 -9 87 -7 7 -136 -12 -157 -23 -9 -5 -39 -20 -67 -32 -80 -36
-112 -62 -193 -154 -41 -47 -102 -158 -102 -187 0 -8 -6 -20 -12 -26 -18 -18
-17 -264 1 -317 18 -52 59 -143 71 -158 118 -145 205 -204 346 -237 106 -25
152 -25 258 0 139 32 247 102 340 220 37 46 86 154 92 202 6 45 9 48 35 48
l29 0 0 -303 0 -303 -122 -28 c-135 -31 -331 -94 -336 -108 -2 -4 -7 -6 -12
-3 -8 5 -79 -22 -192 -73 -35 -16 -78 -34 -95 -41 -18 -8 -30 -18 -26 -24 3
-5 2 -7 -4 -4 -12 8 -93 -31 -93 -45 0 -5 -4 -7 -9 -3 -5 3 -17 -3 -27 -12
-10 -10 -20 -17 -23 -16 -9 4 -155 -83 -176 -104 -10 -10 -20 -17 -22 -16 -8
6 -32 -10 -27 -18 3 -5 2 -8 -3 -7 -13 5 -102 -55 -97 -64 3 -5 2 -8 -3 -7
-24 6 -48 -22 -88 -101 -24 -48 -41 -90 -38 -94 4 -3 2 -6 -4 -6 -11 0 -36
-53 -36 -76 0 -7 -4 -11 -9 -8 -4 3 -9 0 -9 -5 -3 -20 -5 -26 -22 -59 -10 -18
-15 -37 -12 -42 3 -6 2 -10 -4 -10 -9 0 -27 -40 -22 -49 2 -2 -2 -7 -9 -11 -6
-4 -12 -17 -13 -28 -1 -12 -4 -22 -8 -22 -7 0 -23 -50 -21 -62 1 -5 -2 -8 -7
-8 -5 0 -12 -12 -17 -27 -10 -36 -9 -34 -21 -63 -33 -78 -72 -179 -75 -196 -1
-10 -6 -21 -10 -24 -4 -3 -9 -15 -11 -25 -2 -11 -8 -31 -14 -45 -40 -100 -155
-462 -148 -468 2 -3 0 -10 -5 -17 -5 -6 -11 -20 -13 -31 -2 -10 -7 -27 -11
-36 -4 -9 -5 -22 -1 -28 3 -5 2 -10 -4 -10 -8 0 -109 -391 -125 -483 -3 -15
-7 -35 -10 -45 -3 -9 -8 -33 -11 -52 -2 -19 -14 -82 -25 -140 -29 -153 -54
-316 -65 -420 -3 -25 -7 -55 -9 -67 -3 -11 -9 -74 -15 -140 -6 -65 -14 -136
-16 -158 -3 -22 -7 -112 -11 -200 -3 -88 -7 -199 -9 -247 -2 -75 0 -89 16
-107 11 -12 16 -21 12 -21 -4 0 -3 -4 3 -8 6 -4 15 -14 20 -23 34 -60 261
-292 277 -282 5 3 7 1 3 -5 -3 -6 8 -21 26 -33 18 -13 35 -26 38 -29 28 -30
212 -153 287 -191 26 -13 50 -26 53 -29 15 -15 111 -59 104 -48 -4 7 5 3 20
-10 16 -12 32 -19 37 -16 5 3 9 0 9 -6 0 -7 7 -10 15 -6 8 3 15 1 15 -4 0 -8
31 -21 60 -25 3 0 15 -6 28 -13 12 -7 27 -10 32 -7 6 3 10 2 10 -3 0 -12 77
-35 90 -27 6 3 10 2 10 -4 0 -6 17 -13 38 -18 46 -9 44 -8 62 -16 8 -4 29 -8
45 -10 17 -2 35 -6 41 -9 5 -4 31 -9 56 -12 26 -3 68 -11 93 -17 25 -6 48 -9
51 -6 3 3 19 1 36 -4 16 -4 80 -11 142 -14 61 -4 116 -8 122 -10 6 -2 19 8 30
23 10 14 25 31 32 39 7 7 10 13 6 13 -4 0 -1 6 8 13 31 24 107 120 102 129 -3
5 -2 7 3 6 4 -2 9 0 11 4 2 4 23 29 48 55 24 26 46 56 50 66 3 9 9 17 13 17 4
0 25 24 46 53 22 28 43 54 47 57 23 17 7 33 -57 54 -38 13 -73 22 -77 19 -5
-2 -8 1 -8 6 0 6 -5 11 -11 11 -6 0 -25 6 -42 14 -120 55 -167 74 -167 68 0
-4 -4 -2 -8 4 -4 5 -27 22 -52 35 -96 54 -126 72 -151 90 -14 10 -29 16 -33
14 -3 -3 -4 -2 -1 2 7 9 -47 43 -58 36 -6 -3 -7 -1 -3 5 8 13 -28 35 -39 24
-3 -4 -5 -2 -3 4 2 6 -24 33 -57 60 -33 27 -66 57 -73 67 -7 9 -18 14 -24 11
-6 -4 -8 -3 -5 3 7 12 -26 46 -36 38 -4 -3 -5 -2 -2 2 7 9 -78 99 -90 95 -5
-2 -7 0 -3 4 4 4 -1 19 -12 34 -25 35 -25 39 -1 37 11 0 18 -4 16 -8 -4 -6 32
-26 49 -27 5 0 12 -5 15 -11 8 -12 211 -131 224 -131 5 0 21 -9 35 -19 15 -10
30 -19 35 -20 4 0 21 -8 37 -16 17 -9 30 -12 30 -8 0 5 4 3 8 -4 11 -17 102
-54 114 -46 6 3 8 2 5 -4 -6 -9 69 -41 86 -35 4 1 7 -2 7 -6 0 -7 63 -32 90
-37 3 0 11 -4 18 -8 6 -5 17 -5 22 -2 5 3 10 2 10 -4 0 -8 51 -30 83 -35 7 -1
17 -4 22 -7 13 -8 146 -51 165 -54 8 -1 23 -5 32 -9 9 -4 22 -9 30 -10 28 -6
75 -19 116 -32 23 -8 46 -13 50 -12 4 0 14 -1 22 -4 33 -13 252 -59 340 -73
224 -34 303 -43 505 -54 137 -8 422 -6 515 4 30 3 80 8 110 10 115 9 486 67
520 82 8 3 18 6 22 5 12 -3 243 60 254 69 6 5 13 6 16 4 3 -3 18 0 34 6 16 7
31 13 34 13 45 10 100 31 100 38 0 5 4 7 9 4 9 -6 142 40 151 52 3 4 10 7 15
7 16 0 158 57 174 69 7 6 19 11 25 11 23 0 106 38 106 48 0 6 3 8 6 4 7 -7
167 71 172 84 2 5 7 7 12 4 5 -3 16 3 26 12 10 10 19 17 21 16 8 -7 21 -1 41
17 12 12 22 18 22 15 0 -3 41 20 91 51 50 31 92 54 95 52 2 -3 -5 -16 -16 -30
-10 -14 -17 -28 -15 -32 3 -3 2 -4 -2 -1 -8 6 -39 -37 -35 -48 1 -5 -2 -6 -7
-3 -12 8 -33 -18 -23 -29 4 -5 2 -5 -5 -1 -7 4 -17 -2 -23 -14 -6 -11 -59 -61
-118 -112 -59 -50 -113 -99 -120 -107 -8 -9 -11 -11 -8 -5 3 6 -44 -22 -103
-61 -60 -39 -135 -84 -167 -100 -33 -15 -67 -35 -76 -43 -10 -8 -18 -12 -18
-8 0 3 -12 0 -27 -8 -16 -7 -71 -30 -123 -49 -52 -20 -108 -41 -125 -48 -16
-6 -41 -13 -54 -15 -32 -4 -33 -7 -8 -36 12 -14 33 -40 47 -59 41 -54 122
-153 142 -172 10 -10 18 -21 18 -25 0 -4 25 -33 55 -65 30 -32 53 -59 52 -60
-6 -6 67 -85 77 -82 6 2 58 6 115 10 94 5 282 29 321 40 8 2 31 7 50 10 60 10
124 27 136 36 6 5 13 7 16 4 6 -6 269 81 277 92 3 5 13 9 21 11 41 8 118 46
113 56 -3 6 -3 8 2 4 7 -7 143 57 155 73 3 3 15 9 28 13 12 4 22 12 22 17 0 5
7 9 16 9 8 0 13 4 10 8 -3 5 1 9 8 9 18 0 133 82 140 100 3 8 10 12 15 8 5 -3
17 5 25 17 9 12 16 19 16 15 0 -5 6 -2 14 5 7 8 36 34 64 58 28 24 48 48 45
53 -3 6 -1 7 4 4 13 -8 46 27 36 38 -5 4 -3 5 3 2 7 -4 22 7 35 23 13 17 43
51 66 77 23 25 40 50 37 54 -3 5 0 9 5 9 6 0 22 17 36 38 l24 37 -4 205 c-3
113 -7 216 -10 230 -2 14 -7 68 -10 120 -3 52 -8 106 -10 120 -2 14 -6 54 -10
90 -6 64 -50 377 -60 435 -6 34 -35 188 -42 225 -2 13 -11 56 -19 95 -9 38
-17 79 -20 90 -2 11 -11 47 -19 80 -9 33 -18 75 -21 94 -2 19 -9 40 -14 46 -6
7 -8 14 -5 17 4 4 -17 92 -32 128 -3 8 -6 18 -5 22 1 4 -3 20 -10 35 -6 15
-12 35 -13 43 -6 48 -127 424 -137 428 -5 2 -6 7 -3 12 7 11 -15 70 -27 70 -5
0 -7 4 -3 9 5 9 -50 175 -65 196 -4 6 -11 25 -15 43 -3 17 -10 32 -14 32 -4 0
-8 6 -8 13 0 16 -83 220 -91 227 -4 3 -7 10 -7 15 -1 21 -38 95 -47 95 -5 0
-7 4 -3 9 3 6 -30 84 -74 174 -57 117 -88 171 -109 186 -16 11 -31 19 -33 18
-2 -1 -3 0 -1 2 5 9 -112 80 -121 74 -6 -3 -7 -1 -4 4 7 10 -20 28 -35 25 -5
-1 -8 2 -8 7 0 9 -199 128 -222 133 -7 2 -15 6 -18 9 -10 12 -130 69 -130 62
0 -5 -4 -3 -8 3 -10 16 -102 55 -113 48 -5 -3 -9 -1 -9 4 0 9 -31 23 -55 26
-5 1 -12 4 -15 7 -8 10 -236 85 -340 112 -175 46 -344 75 -481 82 -85 5 -94 4
-115 -16 -13 -12 -21 -26 -17 -32 3 -6 1 -7 -4 -4 -6 4 -16 0 -23 -8 -7 -8 -9
-15 -4 -15 5 0 2 -5 -6 -10 -12 -8 -11 -10 8 -11 24 -2 30 -3 52 -12 8 -3 58
-20 110 -37 52 -18 104 -36 115 -41 11 -4 27 -10 35 -11 8 -2 17 -5 20 -9 4
-4 93 -40 110 -45 11 -2 50 -20 185 -82 77 -35 147 -65 156 -66 9 -1 24 -10
33 -19 10 -9 21 -17 26 -17 13 0 257 -138 321 -181 31 -21 59 -35 63 -32 3 4
6 2 6 -4 0 -6 30 -30 67 -54 64 -41 98 -67 129 -96 7 -7 16 -13 21 -13 4 0 14
-9 21 -20 15 -24 5 -26 -26 -4 -12 8 -22 12 -22 7 0 -4 -4 -3 -8 2 -11 15 -72
47 -72 38 0 -4 -4 -3 -8 3 -8 11 -216 113 -242 119 -3 0 -20 9 -38 18 -18 10
-37 15 -42 12 -6 -3 -10 -1 -10 5 0 7 -7 9 -16 6 -8 -3 -12 -2 -9 4 5 9 -8 12
-31 9 -4 0 -10 3 -13 8 -6 9 -89 43 -114 47 -6 1 -22 7 -34 14 -12 7 -30 13
-40 15 -10 2 -27 7 -38 11 -11 5 -38 15 -60 23 -22 8 -42 15 -45 15 -3 0 -16
4 -28 9 -13 5 -27 7 -32 4 -5 -3 -11 -1 -14 4 -5 8 -89 33 -121 37 -5 0 -17 4
-25 7 -75 31 -504 115 -670 132 -35 3 -67 8 -70 10 -43 26 -1058 26 -1101 -1
-4 -2 -40 -6 -80 -9 -94 -8 -369 -44 -389 -52 -8 -3 -26 -7 -40 -8 -47 -5
-105 -16 -145 -26 -22 -6 -51 -13 -65 -16 -36 -6 -141 -32 -170 -42 -14 -5
-61 -19 -105 -31 -44 -13 -86 -28 -94 -34 -8 -6 -17 -10 -20 -8 -11 6 -91 -21
-91 -30 0 -5 -4 -7 -9 -4 -5 4 -20 2 -33 -3 -12 -5 -27 -10 -33 -11 -5 -1 -27
-11 -47 -21 -21 -11 -38 -17 -38 -15 0 5 -181 -69 -262 -107 -27 -12 -48 -25
-48 -30 0 -4 -4 -6 -9 -3 -5 3 -69 -24 -142 -61 -159 -80 -162 -81 -127 -50
15 14 24 28 20 33 -4 4 -1 4 6 0 7 -4 15 -1 18 8 3 9 12 16 19 16 7 0 18 6 25
14 6 8 53 43 103 77 51 35 95 68 99 73 4 6 8 8 8 4 0 -7 60 29 88 52 6 6 12 7
12 3 0 -4 5 -1 10 7 5 8 13 15 17 15 10 1 117 56 123 64 3 3 57 31 120 61 63
30 118 59 121 63 3 5 9 8 13 8 14 -2 86 32 86 41 0 5 4 7 8 4 5 -3 62 17 128
43 155 63 157 64 169 67 6 1 24 8 40 15 17 6 36 13 43 15 22 4 147 49 152 54
3 3 10 5 15 5 28 0 135 38 130 46 -4 5 -11 7 -16 3 -5 -3 -8 -2 -7 3 1 4 -4
18 -11 31 -11 21 -19 23 -79 21 -37 -1 -82 -6 -100 -10 -17 -4 -35 -3 -37 2
-7 10 -9 338 -2 345 2 2 17 -12 33 -33 39 -53 51 -64 114 -111 72 -53 148 -86
231 -101 313 -54 573 102 676 404 24 72 23 243 -1 310 -32 87 -59 145 -68 145
-4 0 -8 6 -8 14 0 8 -32 46 -71 85 -67 67 -188 141 -230 141 -8 0 -21 6 -27
13 -18 17 -278 17 -309 0 -19 -12 -23 -10 -41 20 -21 33 -61 106 -117 212 -18
33 -49 90 -69 127 l-36 68 25 50 c45 89 28 204 -41 274 -63 63 -167 87 -248
58z m450 -4337 c30 -13 68 -33 83 -44 16 -11 30 -19 32 -17 2 2 39 -32 82 -75
43 -44 75 -79 72 -79 -7 0 57 -104 67 -108 5 -2 5 -8 2 -13 -3 -6 -1 -15 4
-22 10 -12 41 -130 48 -177 5 -40 5 -153 0 -177 -2 -11 -8 -43 -12 -70 -11
-64 -9 -61 -54 -160 -16 -34 -25 -65 -22 -69 4 -4 1 -4 -5 0 -8 4 -13 1 -13
-8 0 -9 -4 -16 -9 -16 -5 0 -12 -8 -15 -18 -7 -21 -124 -142 -137 -142 -6 0
-7 -6 -3 -12 4 -7 4 -10 -1 -6 -7 7 -69 -24 -85 -41 -3 -4 -9 -7 -15 -8 -5 -1
-37 -12 -70 -23 -130 -47 -302 -37 -428 25 -31 15 -58 27 -61 26 -3 0 -20 13
-37 29 -18 16 -37 26 -42 23 -6 -3 -7 -1 -3 5 3 6 -2 15 -12 21 -10 5 -38 35
-62 66 -25 32 -50 62 -56 69 -6 6 -11 16 -12 21 -1 6 -8 17 -16 27 -8 9 -12
19 -9 22 4 3 1 6 -6 6 -7 0 -10 3 -7 8 3 6 -4 29 -23 72 -1 3 -10 39 -20 80
-19 84 -20 230 -2 298 7 23 9 47 6 52 -3 6 -2 10 3 10 12 0 33 70 25 84 -3 6
-3 8 2 4 4 -4 19 16 34 45 14 29 29 54 34 55 4 2 7 7 7 12 0 5 17 27 38 50 20
23 37 47 37 53 0 7 5 12 10 12 6 0 40 22 77 48 86 62 199 103 293 106 38 1 71
4 73 6 8 7 160 -29 208 -50z m2143 30 c32 -8 79 -24 105 -35 53 -24 170 -110
199 -146 10 -13 25 -31 33 -38 8 -8 14 -19 14 -25 0 -5 10 -17 22 -25 12 -9
19 -16 15 -16 -4 0 7 -27 24 -61 62 -124 85 -277 64 -424 -5 -33 -10 -64 -11
-70 -4 -32 -57 -155 -85 -200 -16 -25 -29 -48 -29 -51 0 -16 -152 -152 -193
-173 -26 -13 -47 -27 -47 -30 0 -4 -8 -7 -17 -8 -10 -1 -49 -11 -88 -22 -126
-36 -283 -22 -397 35 -27 14 -48 22 -48 20 0 -3 -14 8 -32 24 -17 16 -34 28
-36 25 -2 -2 -17 12 -34 31 -16 19 -35 31 -41 27 -5 -3 -7 -2 -4 3 3 5 -10 27
-29 49 -43 50 -97 153 -125 236 -28 86 -35 277 -13 368 20 86 56 171 95 229
18 26 32 52 32 59 0 7 3 11 7 10 4 -1 24 17 46 40 21 23 62 57 91 76 28 19 50
38 47 41 -2 3 -1 4 2 2 3 -2 27 5 52 17 26 11 67 26 92 33 63 17 221 17 289
-1z"/>
</g>
</svg>
